solid block_test
   facet normal 0.000000e+000 -1.000000e+000 0.000000e+000
      outer loop
         vertex -1.081139e+000 1.625000e+000 5.000000e-001
         vertex -1.081139e+000 1.625000e+000 -5.000000e-001
         vertex 1.081139e+000 1.625000e+000 5.000000e-001
      endloop
   endfacet
   facet normal 0.000000e+000 -1.000000e+000 0.000000e+000
      outer loop
         vertex 1.081139e+000 1.625000e+000 5.000000e-001
         vertex -1.081139e+000 1.625000e+000 -5.000000e-001
         vertex 1.081139e+000 1.625000e+000 -5.000000e-001
      endloop
   endfacet
   facet normal 0.000000e+000 1.000000e+000 0.000000e+000
      outer loop
         vertex -3.162278e+000 1.250000e-001 -5.000000e-001
         vertex -3.162278e+000 1.250000e-001 5.000000e-001
         vertex -2.081139e+000 1.250000e-001 -5.000000e-001
      endloop
   endfacet
   facet normal 0.000000e+000 1.000000e+000 0.000000e+000
      outer loop
         vertex -2.081139e+000 1.250000e-001 -5.000000e-001
         vertex -3.162278e+000 1.250000e-001 5.000000e-001
         vertex -2.081139e+000 1.250000e-001 5.000000e-001
      endloop
   endfacet
   facet normal 1.000000e+000 0.000000e+000 -2.731848e-016
      outer loop
         vertex -1.081139e+000 1.625000e+000 -5.000000e-001
         vertex -1.081139e+000 1.625000e+000 5.000000e-001
         vertex -1.081139e+000 0.000000e+000 -5.000000e-001
      endloop
   endfacet
   facet normal 1.000000e+000 0.000000e+000 -2.731848e-016
      outer loop
         vertex -1.081139e+000 0.000000e+000 -5.000000e-001
         vertex -1.081139e+000 1.625000e+000 5.000000e-001
         vertex -1.081139e+000 0.000000e+000 5.000000e-001
      endloop
   endfacet
   facet normal -6.563349e-017 0.000000e+000 -1.000000e+000
      outer loop
         vertex -3.162278e+000 0.000000e+000 -5.000000e-001
         vertex -3.162278e+000 1.250000e-001 -5.000000e-001
         vertex -2.081139e+000 1.250000e-001 -5.000000e-001
      endloop
   endfacet
   facet normal -6.563349e-017 0.000000e+000 -1.000000e+000
      outer loop
         vertex 3.162278e+000 1.250000e-001 -5.000000e-001
         vertex 3.162278e+000 -1.024443e-016 -5.000000e-001
         vertex 2.081139e+000 1.250000e-001 -5.000000e-001
      endloop
   endfacet
   facet normal -6.563349e-017 0.000000e+000 -1.000000e+000
      outer loop
         vertex 2.081139e+000 1.250000e-001 -5.000000e-001
         vertex 3.162278e+000 -1.024443e-016 -5.000000e-001
         vertex 1.081139e+000 -1.024443e-016 -5.000000e-001
      endloop
   endfacet
   facet normal -6.563349e-017 0.000000e+000 -1.000000e+000
      outer loop
         vertex 2.081139e+000 1.250000e-001 -5.000000e-001
         vertex 1.081139e+000 -1.024443e-016 -5.000000e-001
         vertex 2.081139e+000 1.750000e+000 -5.000000e-001
      endloop
   endfacet
   facet normal -6.563349e-017 0.000000e+000 -1.000000e+000
      outer loop
         vertex 2.081139e+000 1.750000e+000 -5.000000e-001
         vertex 1.081139e+000 -1.024443e-016 -5.000000e-001
         vertex 1.081139e+000 1.625000e+000 -5.000000e-001
      endloop
   endfacet
   facet normal -6.563349e-017 0.000000e+000 -1.000000e+000
      outer loop
         vertex 2.081139e+000 1.750000e+000 -5.000000e-001
         vertex 1.081139e+000 1.625000e+000 -5.000000e-001
         vertex -2.081139e+000 1.750000e+000 -5.000000e-001
      endloop
   endfacet
   facet normal -6.563349e-017 0.000000e+000 -1.000000e+000
      outer loop
         vertex -2.081139e+000 1.750000e+000 -5.000000e-001
         vertex 1.081139e+000 1.625000e+000 -5.000000e-001
         vertex -1.081139e+000 1.625000e+000 -5.000000e-001
      endloop
   endfacet
   facet normal -6.563349e-017 0.000000e+000 -1.000000e+000
      outer loop
         vertex -2.081139e+000 1.750000e+000 -5.000000e-001
         vertex -1.081139e+000 1.625000e+000 -5.000000e-001
         vertex -2.081139e+000 1.250000e-001 -5.000000e-001
      endloop
   endfacet
   facet normal -6.563349e-017 0.000000e+000 -1.000000e+000
      outer loop
         vertex -2.081139e+000 1.250000e-001 -5.000000e-001
         vertex -1.081139e+000 1.625000e+000 -5.000000e-001
         vertex -1.081139e+000 0.000000e+000 -5.000000e-001
      endloop
   endfacet
   facet normal -6.563349e-017 0.000000e+000 -1.000000e+000
      outer loop
         vertex -2.081139e+000 1.250000e-001 -5.000000e-001
         vertex -1.081139e+000 0.000000e+000 -5.000000e-001
         vertex -3.162278e+000 0.000000e+000 -5.000000e-001
      endloop
   endfacet
   facet normal -1.000000e+000 0.000000e+000 0.000000e+000
      outer loop
         vertex -3.162278e+000 1.250000e-001 5.000000e-001
         vertex -3.162278e+000 1.250000e-001 -5.000000e-001
         vertex -3.162278e+000 0.000000e+000 5.000000e-001
      endloop
   endfacet
   facet normal -1.000000e+000 0.000000e+000 0.000000e+000
      outer loop
         vertex -3.162278e+000 0.000000e+000 5.000000e-001
         vertex -3.162278e+000 1.250000e-001 -5.000000e-001
         vertex -3.162278e+000 0.000000e+000 -5.000000e-001
      endloop
   endfacet
   facet normal 6.563349e-017 0.000000e+000 1.000000e+000
      outer loop
         vertex 3.162278e+000 -1.024443e-016 5.000000e-001
         vertex 3.162278e+000 1.250000e-001 5.000000e-001
         vertex 2.081139e+000 1.250000e-001 5.000000e-001
      endloop
   endfacet
   facet normal 6.563349e-017 0.000000e+000 1.000000e+000
      outer loop
         vertex -3.162278e+000 1.250000e-001 5.000000e-001
         vertex -3.162278e+000 0.000000e+000 5.000000e-001
         vertex -2.081139e+000 1.250000e-001 5.000000e-001
      endloop
   endfacet
   facet normal 6.563349e-017 0.000000e+000 1.000000e+000
      outer loop
         vertex -2.081139e+000 1.250000e-001 5.000000e-001
         vertex -3.162278e+000 0.000000e+000 5.000000e-001
         vertex -1.081139e+000 0.000000e+000 5.000000e-001
      endloop
   endfacet
   facet normal 6.563349e-017 0.000000e+000 1.000000e+000
      outer loop
         vertex -2.081139e+000 1.250000e-001 5.000000e-001
         vertex -1.081139e+000 0.000000e+000 5.000000e-001
         vertex -2.081139e+000 1.750000e+000 5.000000e-001
      endloop
   endfacet
   facet normal 6.563349e-017 0.000000e+000 1.000000e+000
      outer loop
         vertex -2.081139e+000 1.750000e+000 5.000000e-001
         vertex -1.081139e+000 0.000000e+000 5.000000e-001
         vertex -1.081139e+000 1.625000e+000 5.000000e-001
      endloop
   endfacet
   facet normal 6.563349e-017 0.000000e+000 1.000000e+000
      outer loop
         vertex -2.081139e+000 1.750000e+000 5.000000e-001
         vertex -1.081139e+000 1.625000e+000 5.000000e-001
         vertex 2.081139e+000 1.750000e+000 5.000000e-001
      endloop
   endfacet
   facet normal 6.563349e-017 0.000000e+000 1.000000e+000
      outer loop
         vertex 2.081139e+000 1.750000e+000 5.000000e-001
         vertex -1.081139e+000 1.625000e+000 5.000000e-001
         vertex 1.081139e+000 1.625000e+000 5.000000e-001
      endloop
   endfacet
   facet normal 6.563349e-017 0.000000e+000 1.000000e+000
      outer loop
         vertex 2.081139e+000 1.750000e+000 5.000000e-001
         vertex 1.081139e+000 1.625000e+000 5.000000e-001
         vertex 2.081139e+000 1.250000e-001 5.000000e-001
      endloop
   endfacet
   facet normal 6.563349e-017 0.000000e+000 1.000000e+000
      outer loop
         vertex 2.081139e+000 1.250000e-001 5.000000e-001
         vertex 1.081139e+000 1.625000e+000 5.000000e-001
         vertex 1.081139e+000 -1.024443e-016 5.000000e-001
      endloop
   endfacet
   facet normal 6.563349e-017 0.000000e+000 1.000000e+000
      outer loop
         vertex 2.081139e+000 1.250000e-001 5.000000e-001
         vertex 1.081139e+000 -1.024443e-016 5.000000e-001
         vertex 3.162278e+000 -1.024443e-016 5.000000e-001
      endloop
   endfacet
   facet normal 0.000000e+000 -1.000000e+000 0.000000e+000
      outer loop
         vertex -3.162278e+000 0.000000e+000 5.000000e-001
         vertex -3.162278e+000 0.000000e+000 -5.000000e-001
         vertex -1.081139e+000 0.000000e+000 5.000000e-001
      endloop
   endfacet
   facet normal 0.000000e+000 -1.000000e+000 0.000000e+000
      outer loop
         vertex -1.081139e+000 0.000000e+000 5.000000e-001
         vertex -3.162278e+000 0.000000e+000 -5.000000e-001
         vertex -1.081139e+000 0.000000e+000 -5.000000e-001
      endloop
   endfacet
   facet normal -1.000000e+000 0.000000e+000 0.000000e+000
      outer loop
         vertex -2.081139e+000 1.750000e+000 5.000000e-001
         vertex -2.081139e+000 1.750000e+000 -5.000000e-001
         vertex -2.081139e+000 1.250000e-001 5.000000e-001
      endloop
   endfacet
   facet normal -1.000000e+000 0.000000e+000 0.000000e+000
      outer loop
         vertex -2.081139e+000 1.250000e-001 5.000000e-001
         vertex -2.081139e+000 1.750000e+000 -5.000000e-001
         vertex -2.081139e+000 1.250000e-001 -5.000000e-001
      endloop
   endfacet
   facet normal 1.000000e+000 0.000000e+000 0.000000e+000
      outer loop
         vertex 2.081139e+000 1.250000e-001 -5.000000e-001
         vertex 2.081139e+000 1.750000e+000 -5.000000e-001
         vertex 2.081139e+000 1.250000e-001 5.000000e-001
      endloop
   endfacet
   facet normal 1.000000e+000 0.000000e+000 0.000000e+000
      outer loop
         vertex 2.081139e+000 1.250000e-001 5.000000e-001
         vertex 2.081139e+000 1.750000e+000 -5.000000e-001
         vertex 2.081139e+000 1.750000e+000 5.000000e-001
      endloop
   endfacet
   facet normal 0.000000e+000 1.000000e+000 0.000000e+000
      outer loop
         vertex 2.081139e+000 1.750000e+000 5.000000e-001
         vertex 2.081139e+000 1.750000e+000 -5.000000e-001
         vertex -2.081139e+000 1.750000e+000 5.000000e-001
      endloop
   endfacet
   facet normal 0.000000e+000 1.000000e+000 0.000000e+000
      outer loop
         vertex -2.081139e+000 1.750000e+000 5.000000e-001
         vertex 2.081139e+000 1.750000e+000 -5.000000e-001
         vertex -2.081139e+000 1.750000e+000 -5.000000e-001
      endloop
   endfacet
   facet normal -1.000000e+000 0.000000e+000 0.000000e+000
      outer loop
         vertex 1.081139e+000 -6.829620e-017 -5.000000e-001
         vertex 1.081139e+000 -6.829620e-017 5.000000e-001
         vertex 1.081139e+000 1.625000e+000 -5.000000e-001
      endloop
   endfacet
   facet normal -1.000000e+000 0.000000e+000 0.000000e+000
      outer loop
         vertex 1.081139e+000 1.625000e+000 -5.000000e-001
         vertex 1.081139e+000 -6.829620e-017 5.000000e-001
         vertex 1.081139e+000 1.625000e+000 5.000000e-001
      endloop
   endfacet
   facet normal 0.000000e+000 1.000000e+000 0.000000e+000
      outer loop
         vertex 2.081139e+000 1.250000e-001 5.000000e-001
         vertex 3.162278e+000 1.250000e-001 5.000000e-001
         vertex 2.081139e+000 1.250000e-001 -5.000000e-001
      endloop
   endfacet
   facet normal 0.000000e+000 1.000000e+000 0.000000e+000
      outer loop
         vertex 2.081139e+000 1.250000e-001 -5.000000e-001
         vertex 3.162278e+000 1.250000e-001 5.000000e-001
         vertex 3.162278e+000 1.250000e-001 -5.000000e-001
      endloop
   endfacet
   facet normal 1.000000e+000 0.000000e+000 0.000000e+000
      outer loop
         vertex 3.162278e+000 -1.024443e-016 5.000000e-001
         vertex 3.162278e+000 -1.024443e-016 -5.000000e-001
         vertex 3.162278e+000 1.250000e-001 5.000000e-001
      endloop
   endfacet
   facet normal 1.000000e+000 0.000000e+000 0.000000e+000
      outer loop
         vertex 3.162278e+000 1.250000e-001 5.000000e-001
         vertex 3.162278e+000 -1.024443e-016 -5.000000e-001
         vertex 3.162278e+000 1.250000e-001 -5.000000e-001
      endloop
   endfacet
   facet normal 0.000000e+000 -1.000000e+000 0.000000e+000
      outer loop
         vertex 3.162278e+000 -1.024443e-016 -5.000000e-001
         vertex 3.162278e+000 -1.024443e-016 5.000000e-001
         vertex 1.081139e+000 -1.024443e-016 -5.000000e-001
      endloop
   endfacet
   facet normal 0.000000e+000 -1.000000e+000 0.000000e+000
      outer loop
         vertex 1.081139e+000 -1.024443e-016 -5.000000e-001
         vertex 3.162278e+000 -1.024443e-016 5.000000e-001
         vertex 1.081139e+000 -1.024443e-016 5.000000e-001
      endloop
   endfacet
endsolid