solid inner_336T.STL
   facet normal -7.3194398886103784E-01 -2.3515267570291376E-01 -3.0100471347428784E-02
      outer loop
         vertex -2.6713051362155191E+00 -1.3653310458365127E+00 -8.3291221142367533E-12
         vertex -2.7819698309539573E+00 -1.1227839761987159E+00 7.9615915002969240E-01
         vertex -2.9666640172780219E+00 -4.4598723269807161E-01 -8.4240323050543964E-12
      endloop
   endfacet
   facet normal -6.7203711046720871E-01 -4.1098072267494307E-01 3.1791870103442157E-02
      outer loop
         vertex -2.6713051362155191E+00 -1.3653310458365127E+00 -8.3291221142367533E-12
         vertex -2.2663338133507636E+00 -1.9656375636628494E+00 8.0024707682570639E-01
         vertex -2.7819698309539573E+00 -1.1227839761987159E+00 7.9615915002969240E-01
      endloop
   endfacet
   facet normal -6.4096300646300530E-01 -4.7688800084997246E-01 -3.3373865799518343E-02
      outer loop
         vertex -2.6713051362155191E+00 -1.3653310458365127E+00 -8.3291221142367533E-12
         vertex -2.0753791845251981E+00 -2.1662874317047756E+00 -8.9524568314125474E-12
         vertex -2.2663338133507636E+00 -1.9656375636628494E+00 8.0024707682570639E-01
      endloop
   endfacet
   facet normal -7.3530069617229665E-01 -2.7318558205449928E-01 3.7403371045346051E-02
      outer loop
         vertex -2.7819698309539573E+00 -1.1227839761987159E+00 7.9615915002969240E-01
         vertex -2.6038213346520434E+00 -1.4900048472908438E+00 1.6162260339422465E+00
         vertex -2.9433761576989599E+00 -5.8011791412548896E-01 1.5866322753166922E+00
      endloop
   endfacet
   facet normal -6.8969514302723611E-01 -4.2212776417722786E-01 -3.9199208341311492E-02
      outer loop
         vertex -2.7819698309539573E+00 -1.1227839761987159E+00 7.9615915002969240E-01
         vertex -2.2663338133507636E+00 -1.9656375636628494E+00 8.0024707682570639E-01
         vertex -2.6038213346520434E+00 -1.4900048472908438E+00 1.6162260339422465E+00
      endloop
   endfacet
   facet normal -7.6568764073143680E-01 -1.7130612623458127E-01 3.2001927510084738E-02
      outer loop
         vertex -2.7819698309539573E+00 -1.1227839761987159E+00 7.9615915002969240E-01
         vertex -2.9953056095312172E+00 -1.6776264480791533E-01 8.0404729268749109E-01
         vertex -2.9666640172780219E+00 -4.4598723269807161E-01 -8.4240323050543964E-12
      endloop
   endfacet
   facet normal -7.5063806922705811E-01 -1.6736300349626609E-01 -3.8376398203063433E-02
      outer loop
         vertex -2.7819698309539573E+00 -1.1227839761987159E+00 7.9615915002969240E-01
         vertex -2.9433761576989599E+00 -5.8011791412548896E-01 1.5866322753166922E+00
         vertex -2.9953056095312172E+00 -1.6776264480791533E-01 8.0404729268749109E-01
      endloop
   endfacet
   facet normal -7.1225575010806652E-01 -2.6700719967898018E-01 -3.7051287427093391E-02
      outer loop
         vertex -2.6038213346520434E+00 -1.4900048472908438E+00 1.6162260339422465E+00
         vertex -2.7771902040091239E+00 -1.1345547896667494E+00 2.3874610317436407E+00
         vertex -2.9433761576989599E+00 -5.8011791412548896E-01 1.5866322753166922E+00
      endloop
   endfacet
   facet normal -7.3313308450267856E-01 -4.7072425484805458E-01 5.2145597226460394E-02
      outer loop
         vertex -2.6038213346520434E+00 -1.4900048472908438E+00 1.6162260339422465E+00
         vertex -2.1771798078605840E+00 -2.0639496300271896E+00 2.4334625908655121E+00
         vertex -2.7771902040091239E+00 -1.1345547896667494E+00 2.3874610317436407E+00
      endloop
   endfacet
   facet normal -6.2175306306839007E-01 -4.9923724998872426E-01 3.3848506715661447E-02
      outer loop
         vertex -2.6038213346520434E+00 -1.4900048472908438E+00 1.6162260339422465E+00
         vertex -2.2663338133507636E+00 -1.9656375636628494E+00 8.0024707682570639E-01
         vertex -2.0090510689752055E+00 -2.2279393623367723E+00 1.6574637923759472E+00
      endloop
   endfacet
   facet normal -5.7939886600621004E-01 -4.6847426386246344E-01 -2.6531782740621290E-02
      outer loop
         vertex -2.6038213346520434E+00 -1.4900048472908438E+00 1.6162260339422465E+00
         vertex -2.0090510689752055E+00 -2.2279393623367723E+00 1.6574637923759472E+00
         vertex -2.1771798078605840E+00 -2.0639496300271896E+00 2.4334625908655121E+00
      endloop
   endfacet
   facet normal -7.0767981124869017E-01 -2.6872688524666749E-01 3.4041062153567524E-02
      outer loop
         vertex -2.7771902040091239E+00 -1.1345547896667494E+00 2.3874610317436407E+00
         vertex -2.6042774639663513E+00 -1.4892074706624971E+00 3.1824463587440710E+00
         vertex -2.9376051895680981E+00 -6.0866718397928909E-01 3.2040539875973808E+00
      endloop
   endfacet
   facet normal -7.2254068480390121E-01 -4.6904520535180239E-01 -5.2091087191061453E-02
      outer loop
         vertex -2.7771902040091239E+00 -1.1345547896667494E+00 2.3874610317436407E+00
         vertex -2.1771798078605840E+00 -2.0639496300271896E+00 2.4334625908655121E+00
         vertex -2.6042774639663513E+00 -1.4892074706624971E+00 3.1824463587440710E+00
      endloop
   endfacet
   facet normal -7.8312875044043040E-01 -1.7913795028061830E-01 3.8490516932670416E-02
      outer loop
         vertex -2.7771902040091239E+00 -1.1345547896667494E+00 2.3874610317436407E+00
         vertex -2.9947716480567026E+00 -1.7703889007903523E-01 2.4169007822988968E+00
         vertex -2.9433761576989599E+00 -5.8011791412548896E-01 1.5866322753166922E+00
      endloop
   endfacet
   facet normal -7.6641873878974487E-01 -1.7295289737355626E-01 -3.9176514552650143E-02
      outer loop
         vertex -2.7771902040091239E+00 -1.1345547896667494E+00 2.3874610317436407E+00
         vertex -2.9376051895680981E+00 -6.0866718397928909E-01 3.2040539875973808E+00
         vertex -2.9947716480567026E+00 -1.7703889007903523E-01 2.4169007822988968E+00
      endloop
   endfacet
   facet normal -7.1414117243574560E-01 -2.6959573120501740E-01 -3.0227764794137982E-02
      outer loop
         vertex -2.6042774639663513E+00 -1.4892074706624971E+00 3.1824463587440710E+00
         vertex -2.7393022009249348E+00 -1.2232021282127203E+00 3.9999999994298974E+00
         vertex -2.9376051895680981E+00 -6.0866718397928909E-01 3.2040539875973808E+00
      endloop
   endfacet
   facet normal -7.0400692804240328E-01 -4.7549918915423744E-01 3.8440259825954476E-02
      outer loop
         vertex -2.6042774639663513E+00 -1.4892074706624971E+00 3.1824463587440710E+00
         vertex -2.1576899794271580E+00 -2.0843161799453402E+00 3.9999999994399604E+00
         vertex -2.7393022009249348E+00 -1.2232021282127203E+00 3.9999999994298974E+00
      endloop
   endfacet
   facet normal -5.7154079195474150E-01 -4.5871514389790902E-01 2.6087614394914194E-02
      outer loop
         vertex -2.6042774639663513E+00 -1.4892074706624971E+00 3.1824463587440710E+00
         vertex -2.1771798078605840E+00 -2.0639496300271896E+00 2.4334625908655121E+00
         vertex -2.0117127118837499E+00 -2.2255363319535650E+00 3.2173183908382246E+00
      endloop
   endfacet
   facet normal -5.8123569128834951E-01 -4.6888005731948984E-01 -2.3805190820798294E-02
      outer loop
         vertex -2.6042774639663513E+00 -1.4892074706624971E+00 3.1824463587440710E+00
         vertex -2.0117127118837499E+00 -2.2255363319535650E+00 3.2173183908382246E+00
         vertex -2.1576899794271580E+00 -2.0843161799453402E+00 3.9999999994399604E+00
      endloop
   endfacet
   facet normal -7.8046107767329687E-01 -1.9967735809307033E-01 4.0277920393199718E-02
      outer loop
         vertex -2.7393022009249348E+00 -1.2232021282127203E+00 3.9999999994298974E+00
         vertex -2.9901701682512543E+00 -2.4265688260410154E-01 3.9999999994458140E+00
         vertex -2.9376051895680981E+00 -6.0866718397928909E-01 3.2040539875973808E+00
      endloop
   endfacet
   facet normal -7.7833718037277100E-01 9.9971855462328077E-03 -3.1185079798388905E-02
      outer loop
         vertex -2.9666640172780219E+00 -4.4598723269807161E-01 -8.4240323050543964E-12
         vertex -2.9953056095312172E+00 -1.6776264480791533E-01 8.0404729268749109E-01
         vertex -2.9542304382621221E+00 5.2203689653298979E-01 -9.1982602090645571E-12
      endloop
   endfacet
   facet normal -7.9444569559157086E-01 -2.2152819665882190E-02 4.1043846069196976E-02
      outer loop
         vertex -2.9953056095312172E+00 -1.6776264480791533E-01 8.0404729268749109E-01
         vertex -2.9433761576989599E+00 -5.8011791412548896E-01 1.5866322753166922E+00
         vertex -2.9701023402872901E+00 4.2248323900082546E-01 1.6104590342288729E+00
      endloop
   endfacet
   facet normal -7.2006257906250559E-01 6.9422631324958933E-02 2.2773542866817577E-02
      outer loop
         vertex -2.9953056095312172E+00 -1.6776264480791533E-01 8.0404729268749109E-01
         vertex -2.9085237905984496E+00 7.3517981127480181E-01 7.9542760268284962E-01
         vertex -2.9542304382621221E+00 5.2203689653298979E-01 -9.1982602090645571E-12
      endloop
   endfacet
   facet normal -7.3323113506626358E-01 7.0199122107688139E-02 -2.8465509582076057E-02
      outer loop
         vertex -2.9953056095312172E+00 -1.6776264480791533E-01 8.0404729268749109E-01
         vertex -2.9701023402872901E+00 4.2248323900082546E-01 1.6104590342288729E+00
         vertex -2.9085237905984496E+00 7.3517981127480181E-01 7.9542760268284962E-01
      endloop
   endfacet
   facet normal -8.2282409577630977E-01 -2.0965319757019513E-02 -4.0756414303973733E-02
      outer loop
         vertex -2.9433761576989599E+00 -5.8011791412548896E-01 1.5866322753166922E+00
         vertex -2.9947716480567026E+00 -1.7703889007903523E-01 2.4169007822988968E+00
         vertex -2.9701023402872901E+00 4.2248323900082546E-01 1.6104590342288729E+00
      endloop
   endfacet
   facet normal -7.9657671346995440E-01 -2.7776151129781282E-02 4.2620034669851370E-02
      outer loop
         vertex -2.9947716480567026E+00 -1.7703889007903523E-01 2.4169007822988968E+00
         vertex -2.9376051895680981E+00 -6.0866718397928909E-01 3.2040539875973808E+00
         vertex -2.9728304053123971E+00 4.0283914285322109E-01 3.2049025559818545E+00
      endloop
   endfacet
   facet normal -7.9295628774847871E-01 8.7921728209346461E-02 4.1105683153957767E-02
      outer loop
         vertex -2.9947716480567026E+00 -1.7703889007903523E-01 2.4169007822988968E+00
         vertex -2.8850836007667437E+00 8.2237012140933219E-01 2.3952020627985831E+00
         vertex -2.9701023402872901E+00 4.2248323900082546E-01 1.6104590342288729E+00
      endloop
   endfacet
   facet normal -8.0011868446855561E-01 8.6910472688104687E-02 -4.1677413376768946E-02
      outer loop
         vertex -2.9947716480567026E+00 -1.7703889007903523E-01 2.4169007822988968E+00
         vertex -2.9728304053123971E+00 4.0283914285322109E-01 3.2049025559818545E+00
         vertex -2.8850836007667437E+00 8.2237012140933219E-01 2.3952020627985831E+00
      endloop
   endfacet
   facet normal -8.0479384203165560E-01 -2.7992765009134311E-02 -4.0277016677251601E-02
      outer loop
         vertex -2.9376051895680981E+00 -6.0866718397928909E-01 3.2040539875973808E+00
         vertex -2.9901701682512543E+00 -2.4265688260410154E-01 3.9999999994458140E+00
         vertex -2.9728304053123971E+00 4.0283914285322109E-01 3.2049025559818545E+00
      endloop
   endfacet
   facet normal -7.5060438990391076E-01 5.8290308096583296E-02 3.0953262671814304E-02
      outer loop
         vertex -2.9901701682512543E+00 -2.4265688260410154E-01 3.9999999994458140E+00
         vertex -2.9168580118921126E+00 7.0138387120774293E-01 3.9999999994803983E+00
         vertex -2.9728304053123971E+00 4.0283914285322109E-01 3.2049025559818545E+00
      endloop
   endfacet
   facet normal -7.6025429679034129E-01 2.7320776143764475E-01 -2.9523269302244408E-02
      outer loop
         vertex -2.9542304382621221E+00 5.2203689653298979E-01 -9.1982602090645571E-12
         vertex -2.9085237905984496E+00 7.3517981127480181E-01 7.9542760268284962E-01
         vertex -2.6107576187207817E+00 1.4778175285067150E+00 -9.1539484325942055E-12
      endloop
   endfacet
   facet normal -8.0391014348966516E-01 2.6394880994636288E-01 4.0528826412403601E-02
      outer loop
         vertex -2.9085237905984496E+00 7.3517981127480181E-01 7.9542760268284962E-01
         vertex -2.9701023402872901E+00 4.2248323900082546E-01 1.6104590342288729E+00
         vertex -2.6448671820826344E+00 1.4158663740417965E+00 1.5921398851099788E+00
      endloop
   endfacet
   facet normal -5.8169496827579936E-01 2.3237937077803289E-01 -7.9881368895062810E-04
      outer loop
         vertex -2.9085237905984496E+00 7.3517981127480181E-01 7.9542760268284962E-01
         vertex -2.6144722360530843E+00 1.4712358498870703E+00 7.9033181791900042E-01
         vertex -2.6107576187207817E+00 1.4778175285067150E+00 -9.1539484325942055E-12
      endloop
   endfacet
   facet normal -5.8989351873255658E-01 2.3561802250164646E-01 -6.0909031216794807E-03
      outer loop
         vertex -2.9085237905984496E+00 7.3517981127480181E-01 7.9542760268284962E-01
         vertex -2.6448671820826344E+00 1.4158663740417965E+00 1.5921398851099788E+00
         vertex -2.6144722360530843E+00 1.4712358498870703E+00 7.9033181791900042E-01
      endloop
   endfacet
   facet normal -7.8687607735165610E-01 2.5678349401404765E-01 -4.5601091461945187E-02
      outer loop
         vertex -2.9701023402872901E+00 4.2248323900082546E-01 1.6104590342288729E+00
         vertex -2.8850836007667437E+00 8.2237012140933219E-01 2.3952020627985831E+00
         vertex -2.6448671820826344E+00 1.4158663740417965E+00 1.5921398851099788E+00
      endloop
   endfacet
   facet normal -7.9843429383597564E-01 2.5297166785474029E-01 4.4546586968836788E-02
      outer loop
         vertex -2.8850836007667437E+00 8.2237012140933219E-01 2.3952020627985831E+00
         vertex -2.9728304053123971E+00 4.0283914285322109E-01 3.2049025559818545E+00
         vertex -2.6612685969991334E+00 1.3847922042744927E+00 3.2128791200293203E+00
      endloop
   endfacet
   facet normal -6.4851021504867201E-01 2.9281709922637311E-01 2.2418002314994051E-02
      outer loop
         vertex -2.8850836007667437E+00 8.2237012140933219E-01 2.3952020627985831E+00
         vertex -2.5235797106207292E+00 1.6222038831947148E+00 2.4056384766646537E+00
         vertex -2.6448671820826344E+00 1.4158663740417965E+00 1.5921398851099788E+00
      endloop
   endfacet
   facet normal -6.4813604698626381E-01 2.9325761106330200E-01 -2.4302974452322351E-02
      outer loop
         vertex -2.8850836007667437E+00 8.2237012140933219E-01 2.3952020627985831E+00
         vertex -2.6612685969991334E+00 1.3847922042744927E+00 3.2128791200293203E+00
         vertex -2.5235797106207292E+00 1.6222038831947148E+00 2.4056384766646537E+00
      endloop
   endfacet
   facet normal -7.7836700762486855E-01 2.4727552990065244E-01 -3.8052872354402703E-02
      outer loop
         vertex -2.9728304053123971E+00 4.0283914285322109E-01 3.2049025559818545E+00
         vertex -2.9168580118921126E+00 7.0138387120774293E-01 3.9999999994803983E+00
         vertex -2.6612685969991334E+00 1.3847922042744927E+00 3.2128791200293203E+00
      endloop
   endfacet
   facet normal -6.5646952297239303E-01 2.6726109370707035E-01 1.8881213369314448E-02
      outer loop
         vertex -2.9168580118921126E+00 7.0138387120774293E-01 3.9999999994803983E+00
         vertex -2.5773153816686745E+00 1.5353974771547734E+00 3.9999999994587445E+00
         vertex -2.6612685969991334E+00 1.3847922042744927E+00 3.2128791200293203E+00
      endloop
   endfacet
   facet normal -5.3259370030638875E-01 4.0882928422522541E-01 9.0139502507193990E-04
      outer loop
         vertex -2.6107576187207817E+00 1.4778175285067150E+00 -9.1539484325942055E-12
         vertex -2.6144722360530843E+00 1.4712358498870703E+00 7.9033181791900042E-01
         vertex -2.0971047540642815E+00 2.1452626057147381E+00 7.7345299937921264E-01
      endloop
   endfacet
   facet normal -6.4316949849743432E-01 5.3822289767310560E-01 -3.7324010835162291E-02
      outer loop
         vertex -2.6107576187207817E+00 1.4778175285067150E+00 -9.1539484325942055E-12
         vertex -2.0971047540642815E+00 2.1452626057147381E+00 7.7345299937921264E-01
         vertex -1.9148874131638245E+00 2.3093735493715131E+00 -9.3055285699250589E-12
      endloop
   endfacet
   facet normal -5.3950551898975241E-01 4.1431638998234588E-01 8.1593594312544884E-03
      outer loop
         vertex -2.6144722360530843E+00 1.4712358498870703E+00 7.9033181791900042E-01
         vertex -2.6448671820826344E+00 1.4158663740417965E+00 1.5921398851099788E+00
         vertex -2.0971047540642815E+00 2.1452626057147381E+00 7.7345299937921264E-01
      endloop
   endfacet
   facet normal -7.1495746745544453E-01 5.7860845208597023E-01 -4.0163859761975437E-02
      outer loop
         vertex -2.6448671820826344E+00 1.4158663740417965E+00 1.5921398851099788E+00
         vertex -2.5235797106207292E+00 1.6222038831947148E+00 2.4056384766646537E+00
         vertex -1.9347874890658128E+00 2.2927270597605864E+00 1.5842279226158857E+00
      endloop
   endfacet
   facet normal -7.1210338838253107E-01 5.7699905671044560E-01 3.7618114030786742E-02
      outer loop
         vertex -2.6448671820826344E+00 1.4158663740417965E+00 1.5921398851099788E+00
         vertex -1.9347874890658128E+00 2.2927270597605864E+00 1.5842279226158857E+00
         vertex -2.0971047540642815E+00 2.1452626057147381E+00 7.7345299937921264E-01
      endloop
   endfacet
   facet normal -7.4165161216894515E-01 5.9620400268578744E-01 4.8843686229618516E-02
      outer loop
         vertex -2.5235797106207292E+00 1.6222038831947148E+00 2.4056384766646537E+00
         vertex -2.6612685969991334E+00 1.3847922042744927E+00 3.2128791200293203E+00
         vertex -1.9234481307692739E+00 2.3022483092831725E+00 3.2172755158075081E+00
      endloop
   endfacet
   facet normal -4.9602230757953575E-01 4.2271791285733645E-01 -1.0484304904174679E-02
      outer loop
         vertex -2.5235797106207292E+00 1.6222038831947148E+00 2.4056384766646537E+00
         vertex -2.0008227920447328E+00 2.2353317767089598E+00 2.3942929849641041E+00
         vertex -1.9347874890658128E+00 2.2927270597605864E+00 1.5842279226158857E+00
      endloop
   endfacet
   facet normal -5.0535274649998874E-01 4.3109766544290629E-01 1.2459482708914615E-02
      outer loop
         vertex -2.5235797106207292E+00 1.6222038831947148E+00 2.4056384766646537E+00
         vertex -1.9234481307692739E+00 2.3022483092831725E+00 3.2172755158075081E+00
         vertex -2.0008227920447328E+00 2.2353317767089598E+00 2.3942929849641041E+00
      endloop
   endfacet
   facet normal -7.2148673582646250E-01 5.8038480267843062E-01 -3.4096262713166056E-02
      outer loop
         vertex -2.6612685969991334E+00 1.3847922042744927E+00 3.2128791200293203E+00
         vertex -2.5773153816686745E+00 1.5353974771547734E+00 3.9999999994587445E+00
         vertex -1.9234481307692739E+00 2.3022483092831725E+00 3.2172755158075081E+00
      endloop
   endfacet
   facet normal -5.6206738725147654E-01 4.6725869424913763E-01 -1.1753482879744037E-02
      outer loop
         vertex -2.5773153816686745E+00 1.5353974771547734E+00 3.9999999994587445E+00
         vertex -1.9803509273275970E+00 2.2534884517316827E+00 3.9999999994080855E+00
         vertex -1.9234481307692739E+00 2.3022483092831725E+00 3.2172755158075081E+00
      endloop
   endfacet
   facet normal -6.2217271286907261E-01 -8.4722972856358458E-01 6.3967461135441023E-02
      outer loop
         vertex -2.0753791845251981E+00 -2.1662874317047756E+00 -8.9524568314125474E-12
         vertex -1.2025719639295125E+00 -2.7484214872487653E+00 7.7907669772117583E-01
         vertex -2.2663338133507636E+00 -1.9656375636628494E+00 8.0024707682570639E-01
      endloop
   endfacet
   facet normal -4.0667323411675715E-01 -5.7946534498057978E-01 2.2617572686620402E-02
      outer loop
         vertex -2.0753791845251981E+00 -2.1662874317047756E+00 -8.9524568314125474E-12
         vertex -1.3315944625986507E+00 -2.6882812678722123E+00 -8.8646381901646976E-12
         vertex -1.2025719639295125E+00 -2.7484214872487653E+00 7.7907669772117583E-01
      endloop
   endfacet
   facet normal -6.7656849247957673E-01 -9.1732121192401928E-01 -7.7629850350641239E-02
      outer loop
         vertex -2.2663338133507636E+00 -1.9656375636628494E+00 8.0024707682570639E-01
         vertex -1.2025719639295125E+00 -2.7484214872487653E+00 7.7907669772117583E-01
         vertex -2.0090510689752055E+00 -2.2279393623367723E+00 1.6574637923759472E+00
      endloop
   endfacet
   facet normal -5.0608733668724259E-01 -7.0859428690839821E-01 4.0095889070555335E-02
      outer loop
         vertex -2.0090510689752055E+00 -2.2279393623367723E+00 1.6574637923759472E+00
         vertex -1.2551226838344314E+00 -2.7248242229686590E+00 2.3922981027445474E+00
         vertex -2.1771798078605840E+00 -2.0639496300271896E+00 2.4334625908655121E+00
      endloop
   endfacet
   facet normal -3.5875789040751377E-01 -5.2228565263732540E-01 -1.9911945649753016E-02
      outer loop
         vertex -2.0090510689752055E+00 -2.2279393623367723E+00 1.6574637923759472E+00
         vertex -1.2025719639295125E+00 -2.7484214872487653E+00 7.7907669772117583E-01
         vertex -1.3421793708352299E+00 -2.6830122115217776E+00 1.5787440333615528E+00
      endloop
   endfacet
   facet normal -3.7351779978518046E-01 -5.4938926519941955E-01 1.1733887517830666E-02
      outer loop
         vertex -2.0090510689752055E+00 -2.2279393623367723E+00 1.6574637923759472E+00
         vertex -1.3421793708352299E+00 -2.6830122115217776E+00 1.5787440333615528E+00
         vertex -1.2551226838344314E+00 -2.7248242229686590E+00 2.3922981027445474E+00
      endloop
   endfacet
   facet normal -5.2468201660373037E-01 -7.2957119288080730E-01 -3.9639169960207679E-02
      outer loop
         vertex -2.1771798078605840E+00 -2.0639496300271896E+00 2.4334625908655121E+00
         vertex -1.2551226838344314E+00 -2.7248242229686590E+00 2.3922981027445474E+00
         vertex -2.0117127118837499E+00 -2.2255363319535650E+00 3.2173183908382246E+00
      endloop
   endfacet
   facet normal -4.9936702422954038E-01 -7.0220727930438720E-01 3.3563564976653873E-02
      outer loop
         vertex -2.0117127118837499E+00 -2.2255363319535650E+00 3.2173183908382246E+00
         vertex -1.2605087098135512E+00 -2.7223368242858470E+00 3.9999999994116116E+00
         vertex -2.1576899794271580E+00 -2.0843161799453402E+00 3.9999999994399604E+00
      endloop
   endfacet
   facet normal -3.7275204515840649E-01 -5.4546454851686066E-01 -1.1728967625408426E-02
      outer loop
         vertex -2.0117127118837499E+00 -2.2255363319535650E+00 3.2173183908382246E+00
         vertex -1.2551226838344314E+00 -2.7248242229686590E+00 2.3922981027445474E+00
         vertex -1.3413291849013109E+00 -2.6834373511844816E+00 3.2072528840708658E+00
      endloop
   endfacet
   facet normal -3.6339125501664493E-01 -5.3225810622622050E-01 1.0930211941960200E-02
      outer loop
         vertex -2.0117127118837499E+00 -2.2255363319535650E+00 3.2173183908382246E+00
         vertex -1.3413291849013109E+00 -2.6834373511844816E+00 3.2072528840708658E+00
         vertex -1.2605087098135512E+00 -2.7223368242858470E+00 3.9999999994116116E+00
      endloop
   endfacet
   facet normal -4.2261100790026329E-01 5.9098928723195854E-01 2.5833186424553276E-02
      outer loop
         vertex -1.9148874131638245E+00 2.3093735493715131E+00 -9.3055285699250589E-12
         vertex -2.0971047540642815E+00 2.1452626057147381E+00 7.7345299937921264E-01
         vertex -1.3431534778764509E+00 2.6825246933847695E+00 8.1649726307508419E-01
      endloop
   endfacet
   facet normal -4.0356101200179212E-01 6.9185545997523512E-01 -3.3603457233391087E-02
      outer loop
         vertex -1.9148874131638245E+00 2.3093735493715131E+00 -9.3055285699250589E-12
         vertex -1.3431534778764509E+00 2.6825246933847695E+00 8.1649726307508419E-01
         vertex -1.0675416947449230E+00 2.8036324161769612E+00 -9.1762292209196517E-12
      endloop
   endfacet
   facet normal -4.2925112904292717E-01 6.0429796091839338E-01 -2.3974100662241982E-02
      outer loop
         vertex -2.0971047540642815E+00 2.1452626057147381E+00 7.7345299937921264E-01
         vertex -1.9347874890658128E+00 2.2927270597605864E+00 1.5842279226158857E+00
         vertex -1.3431534778764509E+00 2.6825246933847695E+00 8.1649726307508419E-01
      endloop
   endfacet
   facet normal -3.7210716925920589E-01 5.5264325281155180E-01 8.8226323924072148E-03
      outer loop
         vertex -1.9347874890658128E+00 2.2927270597605864E+00 1.5842279226158857E+00
         vertex -2.0008227920447328E+00 2.2353317767089598E+00 2.3942929849641041E+00
         vertex -1.3186245399315037E+00 2.6946668295766556E+00 2.3945698547410048E+00
      endloop
   endfacet
   facet normal -4.1224523493754794E-01 7.1271787664328656E-01 4.4178826774600832E-02
      outer loop
         vertex -1.9347874890658128E+00 2.2927270597605864E+00 1.5842279226158857E+00
         vertex -1.0182706854563865E+00 2.8219009215197750E+00 1.5995749553358967E+00
         vertex -1.3431534778764509E+00 2.6825246933847695E+00 8.1649726307508419E-01
      endloop
   endfacet
   facet normal -4.2264318676921064E-01 7.3323572452077812E-01 -4.2327225808999447E-02
      outer loop
         vertex -1.9347874890658128E+00 2.2927270597605864E+00 1.5842279226158857E+00
         vertex -1.3186245399315037E+00 2.6946668295766556E+00 2.3945698547410048E+00
         vertex -1.0182706854563865E+00 2.8219009215197750E+00 1.5995749553358967E+00
      endloop
   endfacet
   facet normal -3.7800619714870026E-01 5.6141582135588675E-01 -1.0109447432022897E-02
      outer loop
         vertex -2.0008227920447328E+00 2.2353317767089598E+00 2.3942929849641041E+00
         vertex -1.9234481307692739E+00 2.3022483092831725E+00 3.2172755158075081E+00
         vertex -1.3186245399315037E+00 2.6946668295766556E+00 2.3945698547410048E+00
      endloop
   endfacet
   facet normal -3.7497558154223348E-01 5.8089507055595202E-01 8.9267702853662104E-03
      outer loop
         vertex -1.9234481307692739E+00 2.3022483092831725E+00 3.2172755158075081E+00
         vertex -1.9803509273275970E+00 2.2534884517316827E+00 3.9999999994080855E+00
         vertex -1.2382059162493961E+00 2.7325530388195101E+00 3.9999999994612030E+00
      endloop
   endfacet
   facet normal -4.4377712943659758E-01 7.9548394206218742E-01 5.3185187089909380E-02
      outer loop
         vertex -1.9234481307692739E+00 2.3022483092831725E+00 3.2172755158075081E+00
         vertex -9.5092191139030502E-01 2.8453027103366204E+00 3.2096387697769893E+00
         vertex -1.3186245399315037E+00 2.6946668295766556E+00 2.3945698547410048E+00
      endloop
   endfacet
   facet normal -4.2834810359562664E-01 7.6645310366476205E-01 -4.6358831414233637E-02
      outer loop
         vertex -1.9234481307692739E+00 2.3022483092831725E+00 3.2172755158075081E+00
         vertex -1.2382059162493961E+00 2.7325530388195101E+00 3.9999999994612030E+00
         vertex -9.5092191139030502E-01 2.8453027103366204E+00 3.2096387697769893E+00
      endloop
   endfacet
   facet normal -2.1404631533654353E-01 -6.7159328910980776E-01 -1.6395019053268484E-02
      outer loop
         vertex -1.3315944625986507E+00 -2.6882812678722123E+00 -8.8646381901646976E-12
         vertex -4.6955701356865931E-01 -2.9630248405656965E+00 -8.0428858018066762E-12
         vertex -1.2025719639295125E+00 -2.7484214872487653E+00 7.7907669772117583E-01
      endloop
   endfacet
   facet normal -2.1457163503881477E-01 -6.3642572413203624E-01 1.4596514808078317E-02
      outer loop
         vertex -1.2025719639295125E+00 -2.7484214872487653E+00 7.7907669772117583E-01
         vertex -5.5163270709309487E-01 -2.9488474613717006E+00 1.6091964279171320E+00
         vertex -1.3421793708352299E+00 -2.6830122115217776E+00 1.5787440333615528E+00
      endloop
   endfacet
   facet normal -1.9465202823368005E-01 -7.9326952461127964E-01 3.5369371632695712E-02
      outer loop
         vertex -1.2025719639295125E+00 -2.7484214872487653E+00 7.7907669772117583E-01
         vertex -4.6955701356865931E-01 -2.9630248405656965E+00 -8.0428858018066762E-12
         vertex -2.0161599719796314E-01 -2.9932174975649941E+00 7.9742292036109086E-01
      endloop
   endfacet
   facet normal -1.9953293849267315E-01 -8.1897102051024440E-01 -4.1270241654569190E-02
      outer loop
         vertex -1.2025719639295125E+00 -2.7484214872487653E+00 7.7907669772117583E-01
         vertex -2.0161599719796314E-01 -2.9932174975649941E+00 7.9742292036109086E-01
         vertex -5.5163270709309487E-01 -2.9488474613717006E+00 1.6091964279171320E+00
      endloop
   endfacet
   facet normal -2.1499807343110713E-01 -6.4050137074331392E-01 -9.9116100137162412E-03
      outer loop
         vertex -1.3421793708352299E+00 -2.6830122115217776E+00 1.5787440333615528E+00
         vertex -5.5163270709309487E-01 -2.9488474613717006E+00 1.6091964279171320E+00
         vertex -1.2551226838344314E+00 -2.7248242229686590E+00 2.3922981027445474E+00
      endloop
   endfacet
   facet normal -2.1522093562501129E-01 -6.4092909065470072E-01 9.7828817791926655E-03
      outer loop
         vertex -1.2551226838344314E+00 -2.7248242229686590E+00 2.3922981027445474E+00
         vertex -5.5242911973504849E-01 -2.9486983672954605E+00 3.1841828207162917E+00
         vertex -1.3413291849013109E+00 -2.6834373511844816E+00 3.2072528840708658E+00
      endloop
   endfacet
   facet normal -2.1012552351999345E-01 -8.2187966442904747E-01 4.6352785999543122E-02
      outer loop
         vertex -1.2551226838344314E+00 -2.7248242229686590E+00 2.3922981027445474E+00
         vertex -5.5163270709309487E-01 -2.9488474613717006E+00 1.6091964279171320E+00
         vertex -2.0641641545574671E-01 -2.9928902858993012E+00 2.3932022083902833E+00
      endloop
   endfacet
   facet normal -2.1207501276380727E-01 -8.2981915835173059E-01 -4.6409921308608743E-02
      outer loop
         vertex -1.2551226838344314E+00 -2.7248242229686590E+00 2.3922981027445474E+00
         vertex -2.0641641545574671E-01 -2.9928902858993012E+00 2.3932022083902833E+00
         vertex -5.5242911973504849E-01 -2.9486983672954605E+00 3.1841828207162917E+00
      endloop
   endfacet
   facet normal -2.1118231864324169E-01 -6.2726278443330230E-01 -9.2492755202492651E-03
      outer loop
         vertex -1.3413291849013109E+00 -2.6834373511844816E+00 3.2072528840708658E+00
         vertex -5.5242911973504849E-01 -2.9486983672954605E+00 3.1841828207162917E+00
         vertex -1.2605087098135512E+00 -2.7223368242858470E+00 3.9999999994116116E+00
      endloop
   endfacet
   facet normal -2.1642915616895986E-01 -8.0630069063500343E-01 3.5873723972700361E-02
      outer loop
         vertex -1.2605087098135512E+00 -2.7223368242858470E+00 3.9999999994116116E+00
         vertex -5.5242911973504849E-01 -2.9486983672954605E+00 3.1841828207162917E+00
         vertex -2.7217368613588228E-01 -2.9876280706789164E+00 3.9999999994292867E+00
      endloop
   endfacet
   facet normal -2.3170786457552270E-01 7.3804304708628843E-01 3.1257049089873791E-02
      outer loop
         vertex -1.0675416947449230E+00 2.8036324161769612E+00 -9.1762292209196517E-12
         vertex -1.3431534778764509E+00 2.6825246933847695E+00 8.1649726307508419E-01
         vertex -4.3457512080793004E-01 2.9683571995928610E+00 8.0267820673983614E-01
      endloop
   endfacet
   facet normal -1.5713304119454560E-01 8.0846837888686485E-01 -4.2002904264812957E-02
      outer loop
         vertex -1.0675416947449230E+00 2.8036324161769612E+00 -9.1762292209196517E-12
         vertex -4.3457512080793004E-01 2.9683571995928610E+00 8.0267820673983614E-01
         vertex -6.0328128847367796E-02 2.9993933573282585E+00 -7.4968642405082164E-12
      endloop
   endfacet
   facet normal -2.2575510728294867E-01 7.1597701670214342E-01 -3.3772161592000499E-02
      outer loop
         vertex -1.3431534778764509E+00 2.6825246933847695E+00 8.1649726307508419E-01
         vertex -1.0182706854563865E+00 2.8219009215197750E+00 1.5995749553358967E+00
         vertex -4.3457512080793004E-01 2.9683571995928610E+00 8.0267820673983614E-01
      endloop
   endfacet
   facet normal -2.1673916277728489E-01 6.9812365861005132E-01 2.9845080552271981E-02
      outer loop
         vertex -1.0182706854563865E+00 2.8219009215197750E+00 1.5995749553358967E+00
         vertex -1.3186245399315037E+00 2.6946668295766556E+00 2.3945698547410048E+00
         vertex -4.3978267880227906E-01 2.9675901311715651E+00 2.3927348912032875E+00
      endloop
   endfacet
   facet normal -1.4067190864338880E-01 8.4038672081135180E-01 5.1412359503884522E-02
      outer loop
         vertex -1.0182706854563865E+00 2.8219009215197750E+00 1.5995749553358967E+00
         vertex 4.1437733980676364E-02 2.9997138050425227E+00 1.5925653541915430E+00
         vertex -4.3457512080793004E-01 2.9683571995928610E+00 8.0267820673983614E-01
      endloop
   endfacet
   facet normal -1.4205527854199360E-01 8.4457323219227243E-01 -5.1525461542640080E-02
      outer loop
         vertex -1.0182706854563865E+00 2.8219009215197750E+00 1.5995749553358967E+00
         vertex -4.3978267880227906E-01 2.9675901311715651E+00 2.3927348912032875E+00
         vertex 4.1437733980676364E-02 2.9997138050425227E+00 1.5925653541915430E+00
      endloop
   endfacet
   facet normal -2.2272771066766811E-01 7.1699140315489840E-01 -3.2030502413336895E-02
      outer loop
         vertex -1.3186245399315037E+00 2.6946668295766556E+00 2.3945698547410048E+00
         vertex -9.5092191139030502E-01 2.8453027103366204E+00 3.2096387697769893E+00
         vertex -4.3978267880227906E-01 2.9675901311715651E+00 2.3927348912032875E+00
      endloop
   endfacet
   facet normal -1.9819597656684329E-01 7.2893883268001303E-01 3.1946253304636657E-02
      outer loop
         vertex -9.5092191139030502E-01 2.8453027103366204E+00 3.2096387697769893E+00
         vertex -1.2382059162493961E+00 2.7325530388195101E+00 3.9999999994612030E+00
         vertex -3.1592025078273561E-01 2.9833193582218174E+00 3.9999999994669801E+00
      endloop
   endfacet
   facet normal -1.2414425092308669E-01 7.9823358159180369E-01 4.1815113951106500E-02
      outer loop
         vertex -9.5092191139030502E-01 2.8453027103366204E+00 3.2096387697769893E+00
         vertex 3.6688215042057493E-02 2.9997756526717270E+00 3.1929134615548604E+00
         vertex -4.3978267880227906E-01 2.9675901311715651E+00 2.3927348912032875E+00
      endloop
   endfacet
   facet normal -1.2439779563347081E-01 7.9118935247659461E-01 -3.8216064165940228E-02
      outer loop
         vertex -9.5092191139030502E-01 2.8453027103366204E+00 3.2096387697769893E+00
         vertex -3.1592025078273561E-01 2.9833193582218174E+00 3.9999999994669801E+00
         vertex 3.6688215042057493E-02 2.9997756526717270E+00 3.1929134615548604E+00
      endloop
   endfacet
   facet normal 3.5907969319687936E-03 -7.7086663191950267E-01 -3.0393700720393785E-02
      outer loop
         vertex -4.6955701356865931E-01 -2.9630248405656965E+00 -8.0428858018066762E-12
         vertex 4.9714034642504612E-01 -2.9585218386575898E+00 -8.7529497538874068E-12
         vertex -2.0161599719796314E-01 -2.9932174975649941E+00 7.9742292036109086E-01
      endloop
   endfacet
   facet normal -1.4088809856521507E-02 -8.0603211438454148E-01 3.7981475040626031E-02
      outer loop
         vertex -2.0161599719796314E-01 -2.9932174975649941E+00 7.9742292036109086E-01
         vertex 4.4550387659805823E-01 -2.9667366394891781E+00 1.5994341863604431E+00
         vertex -5.5163270709309487E-01 -2.9488474613717006E+00 1.6091964279171320E+00
      endloop
   endfacet
   facet normal 7.1435702508159837E-02 -7.6878529704132859E-01 2.9147190600929081E-02
      outer loop
         vertex -2.0161599719796314E-01 -2.9932174975649941E+00 7.9742292036109086E-01
         vertex 4.9714034642504612E-01 -2.9585218386575898E+00 -8.7529497538874068E-12
         vertex 7.5231599933941162E-01 -2.9041385355753038E+00 8.0901216545655807E-01
      endloop
   endfacet
   facet normal 7.1135437924680814E-02 -7.5756457739665972E-01 -3.2383828826362954E-02
      outer loop
         vertex -2.0161599719796314E-01 -2.9932174975649941E+00 7.9742292036109086E-01
         vertex 7.5231599933941162E-01 -2.9041385355753038E+00 8.0901216545655807E-01
         vertex 4.4550387659805823E-01 -2.9667366394891781E+00 1.5994341863604431E+00
      endloop
   endfacet
   facet normal -1.4455175743893449E-02 -7.8513093036338244E-01 -3.7741075855404968E-02
      outer loop
         vertex -5.5163270709309487E-01 -2.9488474613717006E+00 1.6091964279171320E+00
         vertex 4.4550387659805823E-01 -2.9667366394891781E+00 1.5994341863604431E+00
         vertex -2.0641641545574671E-01 -2.9928902858993012E+00 2.3932022083902833E+00
      endloop
   endfacet
   facet normal -1.7607619124467799E-02 -7.7767735096946322E-01 3.5746254515353779E-02
      outer loop
         vertex -2.0641641545574671E-01 -2.9928902858993012E+00 2.3932022083902833E+00
         vertex 4.2322213895213356E-01 -2.9699971415980828E+00 3.2013964110925208E+00
         vertex -5.5242911973504849E-01 -2.9486983672954605E+00 3.1841828207162917E+00
      endloop
   endfacet
   facet normal 6.7973054654703366E-02 -7.5448037523787403E-01 3.0966982799429360E-02
      outer loop
         vertex -2.0641641545574671E-01 -2.9928902858993012E+00 2.3932022083902833E+00
         vertex 4.4550387659805823E-01 -2.9667366394891781E+00 1.5994341863604431E+00
         vertex 7.3944121934435925E-01 -2.9074433231136894E+00 2.3988606169192610E+00
      endloop
   endfacet
   facet normal 6.8928201198876174E-02 -7.6087390486066109E-01 -3.2147046804988644E-02
      outer loop
         vertex -2.0641641545574671E-01 -2.9928902858993012E+00 2.3932022083902833E+00
         vertex 7.3944121934435925E-01 -2.9074433231136894E+00 2.3988606169192610E+00
         vertex 4.2322213895213356E-01 -2.9699971415980828E+00 3.2013964110925208E+00
      endloop
   endfacet
   facet normal -1.6705785994099238E-02 -7.9112885503527086E-01 -3.2012716879075226E-02
      outer loop
         vertex -5.5242911973504849E-01 -2.9486983672954605E+00 3.1841828207162917E+00
         vertex 4.2322213895213356E-01 -2.9699971415980828E+00 3.2013964110925208E+00
         vertex -2.7217368613588228E-01 -2.9876280706789164E+00 3.9999999994292867E+00
      endloop
   endfacet
   facet normal 5.0339916608750715E-02 -7.5114334783631431E-01 2.7251083100048472E-02
      outer loop
         vertex -2.7217368613588228E-01 -2.9876280706789164E+00 3.9999999994292867E+00
         vertex 4.2322213895213356E-01 -2.9699971415980828E+00 3.2013964110925208E+00
         vertex 6.6839727894199530E-01 -2.9245931465401647E+00 3.9999999994864432E+00
      endloop
   endfacet
   facet normal 2.5187016644687418E-02 8.4499217888443123E-01 4.4415651832928921E-02
      outer loop
         vertex -6.0328128847367796E-02 2.9993933573282585E+00 -7.4968642405082164E-12
         vertex -4.3457512080793004E-01 2.9683571995928610E+00 8.0267820673983614E-01
         vertex 6.1352082736018310E-01 2.9365953393265132E+00 8.1258717805922420E-01
      endloop
   endfacet
   facet normal 1.0009211983438460E-01 7.4204962440966038E-01 -2.5655985432523225E-02
      outer loop
         vertex -6.0328128847367796E-02 2.9993933573282585E+00 -7.4968642405082164E-12
         vertex 6.1352082736018310E-01 2.9365953393265132E+00 8.1258717805922420E-01
         vertex 8.5286573445603120E-01 2.8762162724122615E+00 -7.6516917801860984E-12
      endloop
   endfacet
   facet normal 2.5398996907619289E-02 8.2316072102844262E-01 -4.7983784898877634E-02
      outer loop
         vertex -4.3457512080793004E-01 2.9683571995928610E+00 8.0267820673983614E-01
         vertex 4.1437733980676364E-02 2.9997138050425227E+00 1.5925653541915430E+00
         vertex 6.1352082736018310E-01 2.9365953393265132E+00 8.1258717805922420E-01
      endloop
   endfacet
   facet normal 1.4398381450212498E-02 7.9205769674110726E-01 4.0457174016980513E-02
      outer loop
         vertex 4.1437733980676364E-02 2.9997138050425227E+00 1.5925653541915430E+00
         vertex -4.3978267880227906E-01 2.9675901311715651E+00 2.3927348912032875E+00
         vertex 5.4826749076411974E-01 2.9494749964638092E+00 2.3957481673991174E+00
      endloop
   endfacet
   facet normal 1.4510045084131476E-01 7.7968600960062673E-01 4.3330609927344291E-02
      outer loop
         vertex 4.1437733980676364E-02 2.9997138050425227E+00 1.5925653541915430E+00
         vertex 1.0406380309135235E+00 2.8137292848844617E+00 1.5931449630139511E+00
         vertex 6.1352082736018310E-01 2.9365953393265132E+00 8.1258717805922420E-01
      endloop
   endfacet
   facet normal 1.4935045125693278E-01 8.0224674244987715E-01 -4.4063856667792431E-02
      outer loop
         vertex 4.1437733980676364E-02 2.9997138050425227E+00 1.5925653541915430E+00
         vertex 5.4826749076411974E-01 2.9494749964638092E+00 2.3957481673991174E+00
         vertex 1.0406380309135235E+00 2.8137292848844617E+00 1.5931449630139511E+00
      endloop
   endfacet
   facet normal 1.4592326457965118E-02 7.8918083371684322E-01 -4.0432244402132930E-02
      outer loop
         vertex -4.3978267880227906E-01 2.9675901311715651E+00 2.3927348912032875E+00
         vertex 3.6688215042057493E-02 2.9997756526717270E+00 3.1929134615548604E+00
         vertex 5.4826749076411974E-01 2.9494749964638092E+00 2.3957481673991174E+00
      endloop
   endfacet
   facet normal 4.1637629367447151E-02 7.6857838660787481E-01 3.3862208779237936E-02
      outer loop
         vertex 3.6688215042057493E-02 2.9997756526717270E+00 3.1929134615548604E+00
         vertex -3.1592025078273561E-01 2.9833193582218174E+00 3.9999999994669801E+00
         vertex 6.3636720602244723E-01 2.9317293150090284E+00 3.9999999994608619E+00
      endloop
   endfacet
   facet normal 1.3883193308225183E-01 7.7663052204403538E-01 4.0090198504246104E-02
      outer loop
         vertex 3.6688215042057493E-02 2.9997756526717270E+00 3.1929134615548604E+00
         vertex 1.0067581150091700E+00 2.8260286788235685E+00 3.1994118969741367E+00
         vertex 5.4826749076411974E-01 2.9494749964638092E+00 2.3957481673991174E+00
      endloop
   endfacet
   facet normal 1.3978664886393552E-01 7.7903338189609517E-01 -3.8182705993577551E-02
      outer loop
         vertex 3.6688215042057493E-02 2.9997756526717270E+00 3.1929134615548604E+00
         vertex 6.3636720602244723E-01 2.9317293150090284E+00 3.9999999994608619E+00
         vertex 1.0067581150091700E+00 2.8260286788235685E+00 3.1994118969741367E+00
      endloop
   endfacet
   facet normal 2.6831514591903122E-01 -7.7006157309540502E-01 -3.2866008398946350E-02
      outer loop
         vertex 4.9714034642504612E-01 -2.9585218386575898E+00 -8.7529497538874068E-12
         vertex 1.4489944791159746E+00 -2.6268640992900925E+00 -8.7978097029761670E-12
         vertex 7.5231599933941162E-01 -2.9041385355753038E+00 8.0901216545655807E-01
      endloop
   endfacet
   facet normal 2.7014571413821592E-01 -8.0044452281312140E-01 4.1468569600825046E-02
      outer loop
         vertex 7.5231599933941162E-01 -2.9041385355753038E+00 8.0901216545655807E-01
         vertex 1.4490710206620545E+00 -2.6268218765467406E+00 1.6229109402284425E+00
         vertex 4.4550387659805823E-01 -2.9667366394891781E+00 1.5994341863604431E+00
      endloop
   endfacet
   facet normal 2.4624229333442019E-01 -6.0418914499193788E-01 4.9758238027476642E-03
      outer loop
         vertex 7.5231599933941162E-01 -2.9041385355753038E+00 8.0901216545655807E-01
         vertex 1.4489944791159746E+00 -2.6268640992900925E+00 -8.7978097029761670E-12
         vertex 1.4924145839901015E+00 -2.6024409121254437E+00 8.1682120007405201E-01
      endloop
   endfacet
   facet normal 2.4338575068706866E-01 -5.9692434717618104E-01 -4.9676672127003663E-03
      outer loop
         vertex 7.5231599933941162E-01 -2.9041385355753038E+00 8.0901216545655807E-01
         vertex 1.4924145839901015E+00 -2.6024409121254437E+00 8.1682120007405201E-01
         vertex 1.4490710206620545E+00 -2.6268218765467406E+00 1.6229109402284425E+00
      endloop
   endfacet
   facet normal 2.7034483103875478E-01 -7.9537740515691868E-01 -4.0408818002506702E-02
      outer loop
         vertex 4.4550387659805823E-01 -2.9667366394891781E+00 1.5994341863604431E+00
         vertex 1.4490710206620545E+00 -2.6268218765467406E+00 1.6229109402284425E+00
         vertex 7.3944121934435925E-01 -2.9074433231136894E+00 2.3988606169192610E+00
      endloop
   endfacet
   facet normal 2.5714827990218708E-01 -7.9411487646525714E-01 3.9425375150453641E-02
      outer loop
         vertex 7.3944121934435925E-01 -2.9074433231136894E+00 2.3988606169192610E+00
         vertex 1.4036416697696388E+00 -2.6513751267759718E+00 3.2244598823688579E+00
         vertex 4.2322213895213356E-01 -2.9699971415980828E+00 3.2013964110925208E+00
      endloop
   endfacet
   facet normal 2.5399158781384418E-01 -6.2114191081630410E-01 7.6477362364296975E-03
      outer loop
         vertex 7.3944121934435925E-01 -2.9074433231136894E+00 2.3988606169192610E+00
         vertex 1.4490710206620545E+00 -2.6268218765467406E+00 1.6229109402284425E+00
         vertex 1.5117408697424624E+00 -2.5912621524558848E+00 2.4296883058647398E+00
      endloop
   endfacet
   facet normal 2.5314495153854821E-01 -6.1713425919249698E-01 -1.2246297457213867E-02
      outer loop
         vertex 7.3944121934435925E-01 -2.9074433231136894E+00 2.3988606169192610E+00
         vertex 1.5117408697424624E+00 -2.5912621524558848E+00 2.4296883058647398E+00
         vertex 1.4036416697696388E+00 -2.6513751267759718E+00 3.2244598823688579E+00
      endloop
   endfacet
   facet normal 2.5340551064239020E-01 -7.7731196564351734E-01 -3.3603233555938451E-02
      outer loop
         vertex 4.2322213895213356E-01 -2.9699971415980828E+00 3.2013964110925208E+00
         vertex 1.4036416697696388E+00 -2.6513751267759718E+00 3.2244598823688579E+00
         vertex 6.6839727894199530E-01 -2.9245931465401647E+00 3.9999999994864432E+00
      endloop
   endfacet
   facet normal 2.6089604032553154E-01 -6.5812449207684820E-01 1.5487115998045753E-02
      outer loop
         vertex 6.6839727894199530E-01 -2.9245931465401647E+00 3.9999999994864432E+00
         vertex 1.4036416697696388E+00 -2.6513751267759718E+00 3.2244598823688579E+00
         vertex 1.5169987601529751E+00 -2.5881875440641680E+00 3.9999999994216058E+00
      endloop
   endfacet
   facet normal 4.2202598824962778E-01 9.4339569055733652E-01 5.4207623024095243E-02
      outer loop
         vertex 8.5286573445603120E-01 2.8762162724122615E+00 -7.6516917801860984E-12
         vertex 6.1352082736018310E-01 2.9365953393265132E+00 8.1258717805922420E-01
         vertex 1.7779841433236490E+00 2.4163551846112901E+00 8.0075375591467546E-01
      endloop
   endfacet
   facet normal 3.0287730713534250E-01 6.4740452648459235E-01 2.1877858464918631E-02
      outer loop
         vertex 8.5286573445603120E-01 2.8762162724122615E+00 -7.6516917801860984E-12
         vertex 1.7779841433236490E+00 2.4163551846112901E+00 8.0075375591467546E-01
         vertex 1.6613596337295691E+00 2.4979760145367620E+00 -8.7535048653997194E-12
      endloop
   endfacet
   facet normal 4.0753142869846692E-01 9.1398516474432512E-01 -7.9130506883184293E-02
      outer loop
         vertex 6.1352082736018310E-01 2.9365953393265132E+00 8.1258717805922420E-01
         vertex 1.0406380309135235E+00 2.8137292848844617E+00 1.5931449630139511E+00
         vertex 1.7779841433236490E+00 2.4163551846112901E+00 8.0075375591467546E-01
      endloop
   endfacet
   facet normal 3.0337286299887606E-01 8.1123766125104335E-01 4.8903152417646353E-02
      outer loop
         vertex 1.0406380309135235E+00 2.8137292848844617E+00 1.5931449630139511E+00
         vertex 5.4826749076411974E-01 2.9494749964638092E+00 2.3957481673991174E+00
         vertex 1.5332447847877808E+00 2.5785966006341607E+00 2.4377728767059419E+00
      endloop
   endfacet
   facet normal 3.4690360916886365E-01 6.3535640341741528E-01 4.1820863371775929E-03
      outer loop
         vertex 1.0406380309135235E+00 2.8137292848844617E+00 1.5931449630139511E+00
         vertex 1.8055500112058316E+00 2.3958274459681248E+00 1.6328100206261735E+00
         vertex 1.7779841433236490E+00 2.4163551846112901E+00 8.0075375591467546E-01
      endloop
   endfacet
   facet normal 3.4364500686464738E-01 6.2652673479970911E-01 -2.6005461165315796E-02
      outer loop
         vertex 1.0406380309135235E+00 2.8137292848844617E+00 1.5931449630139511E+00
         vertex 1.5332447847877808E+00 2.5785966006341607E+00 2.4377728767059419E+00
         vertex 1.8055500112058316E+00 2.3958274459681248E+00 1.6328100206261735E+00
      endloop
   endfacet
   facet normal 2.9287371919742650E-01 7.7232259045796303E-01 -4.8452447316468722E-02
      outer loop
         vertex 5.4826749076411974E-01 2.9494749964638092E+00 2.3957481673991174E+00
         vertex 1.0067581150091700E+00 2.8260286788235685E+00 3.1994118969741367E+00
         vertex 1.5332447847877808E+00 2.5785966006341607E+00 2.4377728767059419E+00
      endloop
   endfacet
   facet normal 3.1547733562056124E-01 7.7152777805332939E-01 4.4091287418055403E-02
      outer loop
         vertex 1.0067581150091700E+00 2.8260286788235685E+00 3.1994118969741367E+00
         vertex 6.3636720602244723E-01 2.9317293150090284E+00 3.9999999994608619E+00
         vertex 1.6000684847015798E+00 2.5376723278478965E+00 3.9999999994381072E+00
      endloop
   endfacet
   facet normal 4.0911969848012320E-01 7.1425040996367706E-01 5.0768938144824027E-02
      outer loop
         vertex 1.0067581150091700E+00 2.8260286788235685E+00 3.1994118969741367E+00
         vertex 1.9328380549698487E+00 2.2943707312889803E+00 3.2163388056948161E+00
         vertex 1.5332447847877808E+00 2.5785966006341607E+00 2.4377728767059419E+00
      endloop
   endfacet
   facet normal 4.2075804574461173E-01 7.3136567139225150E-01 -4.8397141202823679E-02
      outer loop
         vertex 1.0067581150091700E+00 2.8260286788235685E+00 3.1994118969741367E+00
         vertex 1.6000684847015798E+00 2.5376723278478965E+00 3.9999999994381072E+00
         vertex 1.9328380549698487E+00 2.2943707312889803E+00 3.2163388056948161E+00
      endloop
   endfacet
   facet normal 4.1551223586052105E-01 -5.3644781764919114E-01 -6.0476140953885545E-03
      outer loop
         vertex 1.4489944791159746E+00 -2.6268640992900925E+00 -8.7978097029761670E-12
         vertex 2.1477813569172590E+00 -2.0945250626355980E+00 7.9078847408956487E-01
         vertex 1.4924145839901015E+00 -2.6024409121254437E+00 8.1682120007405201E-01
      endloop
   endfacet
   facet normal 5.5933664097438640E-01 -6.7731494254103952E-01 -3.8311030009511526E-02
      outer loop
         vertex 1.4489944791159746E+00 -2.6268640992900925E+00 -8.7978097029761670E-12
         vertex 2.3055003144002533E+00 -1.9195489836873463E+00 -9.1429641635443204E-12
         vertex 2.1477813569172590E+00 -2.0945250626355980E+00 7.9078847408956487E-01
      endloop
   endfacet
   facet normal 4.0879105216954909E-01 -5.2715608058736352E-01 6.0364088140447344E-03
      outer loop
         vertex 1.4924145839901015E+00 -2.6024409121254437E+00 8.1682120007405201E-01
         vertex 2.1477813569172590E+00 -2.0945250626355980E+00 7.9078847408956487E-01
         vertex 1.4490710206620545E+00 -2.6268218765467406E+00 1.6229109402284425E+00
      endloop
   endfacet
   facet normal 4.2146038251294127E-01 -5.3430940644375780E-01 -9.1883632448234095E-03
      outer loop
         vertex 1.4490710206620545E+00 -2.6268218765467406E+00 1.6229109402284425E+00
         vertex 2.1707397050181378E+00 -2.0707218849730915E+00 2.3874979671060217E+00
         vertex 1.5117408697424624E+00 -2.5912621524558848E+00 2.4296883058647398E+00
      endloop
   endfacet
   facet normal 6.0234865504617907E-01 -7.1717133637619657E-01 4.7011366139718458E-02
      outer loop
         vertex 1.4490710206620545E+00 -2.6268218765467406E+00 1.6229109402284425E+00
         vertex 2.1477813569172590E+00 -2.0945250626355980E+00 7.9078847408956487E-01
         vertex 2.3327750647258587E+00 -1.8863086962088857E+00 1.5968935032967011E+00
      endloop
   endfacet
   facet normal 5.8065506737669037E-01 -6.9444461717128458E-01 -4.2977361145277615E-02
      outer loop
         vertex 1.4490710206620545E+00 -2.6268218765467406E+00 1.6229109402284425E+00
         vertex 2.3327750647258587E+00 -1.8863086962088857E+00 1.5968935032967011E+00
         vertex 2.1707397050181378E+00 -2.0707218849730915E+00 2.3874979671060217E+00
      endloop
   endfacet
   facet normal 5.6905756227610016E-01 -7.0469894193837201E-01 2.4098896320178823E-02
      outer loop
         vertex 1.5117408697424624E+00 -2.5912621524558848E+00 2.4296883058647398E+00
         vertex 2.2939305024133874E+00 -1.9333605061879768E+00 3.1978425056756512E+00
         vertex 1.4036416697696388E+00 -2.6513751267759718E+00 3.2244598823688579E+00
      endloop
   endfacet
   facet normal 4.2761228596356421E-01 -5.3921356856345271E-01 2.6395218003709697E-02
      outer loop
         vertex 1.5117408697424624E+00 -2.5912621524558848E+00 2.4296883058647398E+00
         vertex 2.1707397050181378E+00 -2.0707218849730915E+00 2.3874979671060217E+00
         vertex 2.2939305024133874E+00 -1.9333605061879768E+00 3.1978425056756512E+00
      endloop
   endfacet
   facet normal 5.5853103058777109E-01 -6.9347197385486614E-01 -2.5136848992478152E-02
      outer loop
         vertex 1.4036416697696388E+00 -2.6513751267759718E+00 3.2244598823688579E+00
         vertex 2.2939305024133874E+00 -1.9333605061879768E+00 3.1978425056756512E+00
         vertex 1.5169987601529751E+00 -2.5881875440641680E+00 3.9999999994216058E+00
      endloop
   endfacet
   facet normal 5.0189954828840511E-01 -6.0326422145923353E-01 -6.3479213784228272E-03
      outer loop
         vertex 1.5169987601529751E+00 -2.5881875440641680E+00 3.9999999994216058E+00
         vertex 2.2939305024133874E+00 -1.9333605061879768E+00 3.1978425056756512E+00
         vertex 2.2690508523439950E+00 -1.9625005035716476E+00 3.9999999994484852E+00
      endloop
   endfacet
   facet normal 5.7464442859403597E-01 6.0317211232782131E-01 -2.2211842464781063E-02
      outer loop
         vertex 1.6613596337295691E+00 2.4979760145367620E+00 -8.7535048653997194E-12
         vertex 1.7779841433236490E+00 2.4163551846112901E+00 8.0075375591467546E-01
         vertex 2.4146150607144334E+00 1.7803466255476754E+00 -8.6240251051528105E-12
      endloop
   endfacet
   facet normal 6.0147695305963633E-01 5.8121037165053757E-01 -5.5877226258161539E-03
      outer loop
         vertex 1.7779841433236490E+00 2.4163551846112901E+00 8.0075375591467546E-01
         vertex 1.8055500112058316E+00 2.3958274459681248E+00 1.6328100206261735E+00
         vertex 2.4761182313484822E+00 1.6937645951254743E+00 7.8901713647611982E-01
      endloop
   endfacet
   facet normal 5.7115253810820421E-01 5.5156159832373830E-01 1.6004254524437767E-02
      outer loop
         vertex 1.7779841433236490E+00 2.4163551846112901E+00 8.0075375591467546E-01
         vertex 2.4761182313484822E+00 1.6937645951254743E+00 7.8901713647611982E-01
         vertex 2.4146150607144334E+00 1.7803466255476754E+00 -8.6240251051528105E-12
      endloop
   endfacet
   facet normal 5.4574970313642468E-01 6.3246811417399396E-01 4.1014108477166439E-02
      outer loop
         vertex 1.8055500112058316E+00 2.3958274459681248E+00 1.6328100206261735E+00
         vertex 1.5332447847877808E+00 2.5785966006341607E+00 2.4377728767059419E+00
         vertex 2.3237827099094854E+00 1.8973755340273912E+00 2.4235037716929435E+00
      endloop
   endfacet
   facet normal 5.9709837997223614E-01 5.6825698357750809E-01 1.7102301210153992E-03
      outer loop
         vertex 1.8055500112058316E+00 2.3958274459681248E+00 1.6328100206261735E+00
         vertex 2.4821822747913482E+00 1.6848653219883158E+00 1.6288126560899834E+00
         vertex 2.4761182313484822E+00 1.6937645951254743E+00 7.8901713647611982E-01
      endloop
   endfacet
   facet normal 5.6414580267178116E-01 5.3708046759852368E-01 -3.1175174721150944E-02
      outer loop
         vertex 1.8055500112058316E+00 2.3958274459681248E+00 1.6328100206261735E+00
         vertex 2.3237827099094854E+00 1.8973755340273912E+00 2.4235037716929435E+00
         vertex 2.4821822747913482E+00 1.6848653219883158E+00 1.6288126560899834E+00
      endloop
   endfacet
   facet normal 5.3443116134658841E-01 6.2118773240803238E-01 -4.7520024704263641E-02
      outer loop
         vertex 1.5332447847877808E+00 2.5785966006341607E+00 2.4377728767059419E+00
         vertex 1.9328380549698487E+00 2.2943707312889803E+00 3.2163388056948161E+00
         vertex 2.3237827099094854E+00 1.8973755340273912E+00 2.4235037716929435E+00
      endloop
   endfacet
   facet normal 5.8058781711461893E-01 6.2874966638433061E-01 5.1331061252227320E-02
      outer loop
         vertex 1.9328380549698487E+00 2.2943707312889803E+00 3.2163388056948161E+00
         vertex 1.6000684847015798E+00 2.5376723278478965E+00 3.9999999994381072E+00
         vertex 2.4023918246942628E+00 1.7968064769524015E+00 3.9999999994307753E+00
      endloop
   endfacet
   facet normal 6.1966458912556188E-01 5.2130997234421128E-01 4.4519984807706525E-02
      outer loop
         vertex 1.9328380549698487E+00 2.2943707312889803E+00 3.2163388056948161E+00
         vertex 2.5910651945796208E+00 1.5120784193829861E+00 3.2149177240602724E+00
         vertex 2.3237827099094854E+00 1.8973755340273912E+00 2.4235037716929435E+00
      endloop
   endfacet
   facet normal 6.1375920642255788E-01 5.1649434021458607E-01 -3.9818008177851305E-02
      outer loop
         vertex 1.9328380549698487E+00 2.2943707312889803E+00 3.2163388056948161E+00
         vertex 2.4023918246942628E+00 1.7968064769524015E+00 3.9999999994307753E+00
         vertex 2.5910651945796208E+00 1.5120784193829861E+00 3.2149177240602724E+00
      endloop
   endfacet
   facet normal 6.0178524340073025E-01 -4.2682336920725372E-01 2.5580875712056556E-02
      outer loop
         vertex 2.3055003144002533E+00 -1.9195489836873463E+00 -9.1429641635443204E-12
         vertex 2.6870707656203163E+00 -1.3340354944860533E+00 7.9306797559722231E-01
         vertex 2.1477813569172590E+00 -2.0945250626355980E+00 7.9078847408956487E-01
      endloop
   endfacet
   facet normal 6.7632196293953539E-01 -3.9528945897046530E-01 -3.3562275897268179E-02
      outer loop
         vertex 2.3055003144002533E+00 -1.9195489836873463E+00 -9.1429641635443204E-12
         vertex 2.8039310556843895E+00 -1.0667570620087419E+00 -9.8648450519434050E-12
         vertex 2.6870707656203163E+00 -1.3340354944860533E+00 7.9306797559722231E-01
      endloop
   endfacet
   facet normal 6.1255983602372255E-01 -4.3430221111782036E-01 -2.8396903829184278E-02
      outer loop
         vertex 2.1477813569172590E+00 -2.0945250626355980E+00 7.9078847408956487E-01
         vertex 2.6870707656203163E+00 -1.3340354944860533E+00 7.9306797559722231E-01
         vertex 2.3327750647258587E+00 -1.8863086962088857E+00 1.5968935032967011E+00
      endloop
   endfacet
   facet normal 6.1308501683605743E-01 -4.2571386498907854E-01 2.6352241663663234E-02
      outer loop
         vertex 2.3327750647258587E+00 -1.8863086962088857E+00 1.5968935032967011E+00
         vertex 2.7020777476129929E+00 -1.3033709522224097E+00 2.4222782566184144E+00
         vertex 2.1707397050181378E+00 -2.0707218849730915E+00 2.3874979671060217E+00
      endloop
   endfacet
   facet normal 6.7546308248430897E-01 -3.8645583283563562E-01 3.2201597511576141E-02
      outer loop
         vertex 2.3327750647258587E+00 -1.8863086962088857E+00 1.5968935032967011E+00
         vertex 2.6870707656203163E+00 -1.3340354944860533E+00 7.9306797559722231E-01
         vertex 2.8092280807970447E+00 -1.0527286402778990E+00 1.6066896587663952E+00
      endloop
   endfacet
   facet normal 6.8231372006925328E-01 -3.8963930864236462E-01 -3.0100904752431434E-02
      outer loop
         vertex 2.3327750647258587E+00 -1.8863086962088857E+00 1.5968935032967011E+00
         vertex 2.8092280807970447E+00 -1.0527286402778990E+00 1.6066896587663952E+00
         vertex 2.7020777476129929E+00 -1.3033709522224097E+00 2.4222782566184144E+00
      endloop
   endfacet
   facet normal 6.1704116899885830E-01 -4.2628226935234870E-01 -2.1545247155731695E-02
      outer loop
         vertex 2.1707397050181378E+00 -2.0707218849730915E+00 2.3874979671060217E+00
         vertex 2.7020777476129929E+00 -1.3033709522224097E+00 2.4222782566184144E+00
         vertex 2.2939305024133874E+00 -1.9333605061879768E+00 3.1978425056756512E+00
      endloop
   endfacet
   facet normal 6.6913092926537188E-01 -3.9955594109092185E-01 6.2390295316838758E-03
      outer loop
         vertex 2.2939305024133874E+00 -1.9333605061879768E+00 3.1978425056756512E+00
         vertex 2.7908092846791819E+00 -1.1006286997065597E+00 3.2372683977986756E+00
         vertex 2.2690508523439950E+00 -1.9625005035716476E+00 3.9999999994484852E+00
      endloop
   endfacet
   facet normal 6.7067491835311510E-01 -4.0145298889999442E-01 2.6848750390899401E-02
      outer loop
         vertex 2.2939305024133874E+00 -1.9333605061879768E+00 3.1978425056756512E+00
         vertex 2.7020777476129929E+00 -1.3033709522224097E+00 2.4222782566184144E+00
         vertex 2.7908092846791819E+00 -1.1006286997065597E+00 3.2372683977986756E+00
      endloop
   endfacet
   facet normal 6.4118794809542978E-01 -3.9150577264253156E-01 -3.7792689516101818E-03
      outer loop
         vertex 2.2690508523439950E+00 -1.9625005035716476E+00 3.9999999994484852E+00
         vertex 2.7908092846791819E+00 -1.1006286997065597E+00 3.2372683977986756E+00
         vertex 2.7823451380592212E+00 -1.1218536144962836E+00 3.9999999994125721E+00
      endloop
   endfacet
   facet normal 7.0420954434667615E-01 -2.2272386371599981E-01 2.8704785906292954E-02
      outer loop
         vertex 2.8039310556843895E+00 -1.0667570620087419E+00 -9.8648450519434050E-12
         vertex 2.9659851814095357E+00 -4.5047963734118079E-01 8.0612435785995351E-01
         vertex 2.6870707656203163E+00 -1.3340354944860533E+00 7.9306797559722231E-01
      endloop
   endfacet
   facet normal 8.4228217104535674E-01 -1.5799149368249066E-01 -4.8539297460263170E-02
      outer loop
         vertex 2.8039310556843895E+00 -1.0667570620087419E+00 -9.8648450519434050E-12
         vertex 2.9999200394440231E+00 -2.1903172129722825E-02 -7.9998646596024514E-12
         vertex 2.9659851814095357E+00 -4.5047963734118079E-01 8.0612435785995351E-01
      endloop
   endfacet
   facet normal 7.1520735384252443E-01 -2.2533588383143491E-01 -2.9472274418520100E-02
      outer loop
         vertex 2.6870707656203163E+00 -1.3340354944860533E+00 7.9306797559722231E-01
         vertex 2.9659851814095357E+00 -4.5047963734118079E-01 8.0612435785995351E-01
         vertex 2.8092280807970447E+00 -1.0527286402778990E+00 1.6066896587663952E+00
      endloop
   endfacet
   facet normal 7.0182816273296478E-01 -2.1474129015739102E-01 2.6211582771135562E-02
      outer loop
         vertex 2.8092280807970447E+00 -1.0527286402778990E+00 1.6066896587663952E+00
         vertex 2.9680667530133129E+00 -4.3655440320661149E-01 2.4017807953801320E+00
         vertex 2.7020777476129929E+00 -1.3033709522224097E+00 2.4222782566184144E+00
      endloop
   endfacet
   facet normal 8.4334714536276345E-01 -1.5175131447925894E-01 5.0974699292127876E-02
      outer loop
         vertex 2.8092280807970447E+00 -1.0527286402778990E+00 1.6066896587663952E+00
         vertex 2.9659851814095357E+00 -4.5047963734118079E-01 8.0612435785995351E-01
         vertex 2.9999951970049272E+00 5.3670005151758076E-03 1.6005003422571731E+00
      endloop
   endfacet
   facet normal 8.4509616306226865E-01 -1.5266034607050122E-01 -5.0520724373711856E-02
      outer loop
         vertex 2.8092280807970447E+00 -1.0527286402778990E+00 1.6066896587663952E+00
         vertex 2.9999951970049272E+00 5.3670005151758076E-03 1.6005003422571731E+00
         vertex 2.9680667530133129E+00 -4.3655440320661149E-01 2.4017807953801320E+00
      endloop
   endfacet
   facet normal 7.1060264312207777E-01 -2.1859718830523148E-01 -2.2986754649269844E-02
      outer loop
         vertex 2.7020777476129929E+00 -1.3033709522224097E+00 2.4222782566184144E+00
         vertex 2.9680667530133129E+00 -4.3655440320661149E-01 2.4017807953801320E+00
         vertex 2.7908092846791819E+00 -1.1006286997065597E+00 3.2372683977986756E+00
      endloop
   endfacet
   facet normal 6.6568420889470414E-01 -1.5811119983992844E-01 2.9873575422239155E-03
      outer loop
         vertex 2.7908092846791819E+00 -1.1006286997065597E+00 3.2372683977986756E+00
         vertex 2.9896411246220187E+00 -2.4909023680973472E-01 3.9999999995015525E+00
         vertex 2.7823451380592212E+00 -1.1218536144962836E+00 3.9999999994125721E+00
      endloop
   endfacet
   facet normal 8.4070789256823775E-01 -1.6590065898919046E-01 4.6501455109062284E-02
      outer loop
         vertex 2.7908092846791819E+00 -1.1006286997065597E+00 3.2372683977986756E+00
         vertex 2.9680667530133129E+00 -4.3655440320661149E-01 2.4017807953801320E+00
         vertex 2.9994663863735465E+00 -5.6580881210038986E-02 3.1897117971529623E+00
      endloop
   endfacet
   facet normal 8.3682453947069457E-01 -1.6860513178983663E-01 -2.9910401090642469E-02
      outer loop
         vertex 2.7908092846791819E+00 -1.1006286997065597E+00 3.2372683977986756E+00
         vertex 2.9994663863735465E+00 -5.6580881210038986E-02 3.1897117971529623E+00
         vertex 2.9896411246220187E+00 -2.4909023680973472E-01 3.9999999995015525E+00
      endloop
   endfacet
   facet normal 6.4046425321511458E-01 3.3510397938968173E-01 -1.3151297776129292E-02
      outer loop
         vertex 2.4146150607144334E+00 1.7803466255476754E+00 -8.6240251051528105E-12
         vertex 2.4761182313484822E+00 1.6937645951254743E+00 7.8901713647611982E-01
         vertex 2.8393257088034143E+00 9.6862248978476240E-01 -7.5561917833866232E-12
      endloop
   endfacet
   facet normal 5.8259486852714470E-01 2.9356425706541034E-01 -1.0959478395771152E-03
      outer loop
         vertex 2.4761182313484822E+00 1.6937645951254743E+00 7.8901713647611982E-01
         vertex 2.4821822747913482E+00 1.6848653219883158E+00 1.6288126560899834E+00
         vertex 2.8313341159116492E+00 9.9173944324924590E-01 1.5714078516999985E+00
      endloop
   endfacet
   facet normal 8.7692702636590947E-01 3.6924091682942767E-01 6.4326001304587488E-02
      outer loop
         vertex 2.4761182313484822E+00 1.6937645951254743E+00 7.8901713647611982E-01
         vertex 2.9421751428836282E+00 5.8617866610591052E-01 7.9318562734021181E-01
         vertex 2.8393257088034143E+00 9.6862248978476240E-01 -7.5561917833866232E-12
      endloop
   endfacet
   facet normal 8.6363856174556175E-01 3.6315788618143297E-01 -6.6248441402974589E-02
      outer loop
         vertex 2.4761182313484822E+00 1.6937645951254743E+00 7.8901713647611982E-01
         vertex 2.8313341159116492E+00 9.9173944324924590E-01 1.5714078516999985E+00
         vertex 2.9421751428836282E+00 5.8617866610591052E-01 7.9318562734021181E-01
      endloop
   endfacet
   facet normal 5.3862187067545619E-01 2.6837497009721739E-01 3.5592505810318767E-02
      outer loop
         vertex 2.4821822747913482E+00 1.6848653219883158E+00 1.6288126560899834E+00
         vertex 2.3237827099094854E+00 1.8973755340273912E+00 2.4235037716929435E+00
         vertex 2.8313341159116492E+00 9.9173944324924590E-01 1.5714078516999985E+00
      endloop
   endfacet
   facet normal 1.0291641167734920E+00 4.9726554264010081E-01 -1.0548533194737164E-01
      outer loop
         vertex 2.3237827099094854E+00 1.8973755340273912E+00 2.4235037716929435E+00
         vertex 2.5910651945796208E+00 1.5120784193829861E+00 3.2149177240602724E+00
         vertex 2.9348421765005832E+00 6.2185319023512764E-01 2.3723797518357039E+00
      endloop
   endfacet
   facet normal 1.0405676275168516E+00 4.9473321019631522E-01 9.3995652422398157E-02
      outer loop
         vertex 2.3237827099094854E+00 1.8973755340273912E+00 2.4235037716929435E+00
         vertex 2.9348421765005832E+00 6.2185319023512764E-01 2.3723797518357039E+00
         vertex 2.8313341159116492E+00 9.9173944324924590E-01 1.5714078516999985E+00
      endloop
   endfacet
   facet normal 8.2024888440793697E-01 3.9397407071622281E-01 5.4241002012316353E-02
      outer loop
         vertex 2.5910651945796208E+00 1.5120784193829861E+00 3.2149177240602724E+00
         vertex 2.4023918246942628E+00 1.7968064769524015E+00 3.9999999994307753E+00
         vertex 2.9042170257779900E+00 7.5201294368353322E-01 3.9999999994898729E+00
      endloop
   endfacet
   facet normal 5.4785951410881883E-01 2.3401840657089318E-01 -2.3723084295657088E-02
      outer loop
         vertex 2.5910651945796208E+00 1.5120784193829861E+00 3.2149177240602724E+00
         vertex 2.8879055424385700E+00 8.1240480815584903E-01 3.1681407173544582E+00
         vertex 2.9348421765005832E+00 6.2185319023512764E-01 2.3723797518357039E+00
      endloop
   endfacet
   facet normal 5.8485493861389759E-01 2.4769240104432211E-01 6.5140276052494672E-03
      outer loop
         vertex 2.5910651945796208E+00 1.5120784193829861E+00 3.2149177240602724E+00
         vertex 2.9042170257779900E+00 7.5201294368353322E-01 3.9999999994898729E+00
         vertex 2.8879055424385700E+00 8.1240480815584903E-01 3.1681407173544582E+00
      endloop
   endfacet
   facet normal 8.3013027380429394E-01 1.9632926000842304E-02 4.5383274505731624E-02
      outer loop
         vertex 2.9999200394440231E+00 -2.1903172129722825E-02 -7.9998646596024514E-12
         vertex 2.9421751428836282E+00 5.8617866610591052E-01 7.9318562734021181E-01
         vertex 2.9659851814095357E+00 -4.5047963734118079E-01 8.0612435785995351E-01
      endloop
   endfacet
   facet normal 7.8567071854987369E-01 1.2738111489771178E-01 -4.0456693898493920E-02
      outer loop
         vertex 2.9999200394440231E+00 -2.1903172129722825E-02 -7.9998646596024514E-12
         vertex 2.8393257088034143E+00 9.6862248978476240E-01 -7.5561917833866232E-12
         vertex 2.9421751428836282E+00 5.8617866610591052E-01 7.9318562734021181E-01
      endloop
   endfacet
   facet normal 8.2939453708988842E-01 1.8474076365792479E-02 -4.6110491076592923E-02
      outer loop
         vertex 2.9659851814095357E+00 -4.5047963734118079E-01 8.0612435785995351E-01
         vertex 2.9421751428836282E+00 5.8617866610591052E-01 7.9318562734021181E-01
         vertex 2.9999951970049272E+00 5.3670005151758076E-03 1.6005003422571731E+00
      endloop
   endfacet
   facet normal 8.3508836562773814E-01 2.7560933295041754E-02 4.8475959058071297E-02
      outer loop
         vertex 2.9999951970049272E+00 5.3670005151758076E-03 1.6005003422571731E+00
         vertex 2.9348421765005832E+00 6.2185319023512764E-01 2.3723797518357039E+00
         vertex 2.9680667530133129E+00 -4.3655440320661149E-01 2.4017807953801320E+00
      endloop
   endfacet
   facet normal 7.7941572951110727E-01 1.3448044322186706E-01 4.0928215407478992E-02
      outer loop
         vertex 2.9999951970049272E+00 5.3670005151758076E-03 1.6005003422571731E+00
         vertex 2.9421751428836282E+00 5.8617866610591052E-01 7.9318562734021181E-01
         vertex 2.8313341159116492E+00 9.9173944324924590E-01 1.5714078516999985E+00
      endloop
   endfacet
   facet normal 7.7929569737516347E-01 1.3208147932695019E-01 -3.9712083250870028E-02
      outer loop
         vertex 2.9999951970049272E+00 5.3670005151758076E-03 1.6005003422571731E+00
         vertex 2.8313341159116492E+00 9.9173944324924590E-01 1.5714078516999985E+00
         vertex 2.9348421765005832E+00 6.2185319023512764E-01 2.3723797518357039E+00
      endloop
   endfacet
   facet normal 8.4512377345047096E-01 2.5255491867449856E-02 -4.5858069734144240E-02
      outer loop
         vertex 2.9680667530133129E+00 -4.3655440320661149E-01 2.4017807953801320E+00
         vertex 2.9348421765005832E+00 6.2185319023512764E-01 2.3723797518357039E+00
         vertex 2.9994663863735465E+00 -5.6580881210038986E-02 3.1897117971529623E+00
      endloop
   endfacet
   facet normal 8.1118209648509798E-01 6.9218139489691036E-02 2.6281039009781973E-02
      outer loop
         vertex 2.9994663863735465E+00 -5.6580881210038986E-02 3.1897117971529623E+00
         vertex 2.9042170257779900E+00 7.5201294368353322E-01 3.9999999994898729E+00
         vertex 2.9896411246220187E+00 -2.4909023680973472E-01 3.9999999995015525E+00
      endloop
   endfacet
   facet normal 6.9561529534768130E-01 8.9788238762608802E-02 1.9529163998482112E-02
      outer loop
         vertex 2.9994663863735465E+00 -5.6580881210038986E-02 3.1897117971529623E+00
         vertex 2.9348421765005832E+00 6.2185319023512764E-01 2.3723797518357039E+00
         vertex 2.8879055424385700E+00 8.1240480815584903E-01 3.1681407173544582E+00
      endloop
   endfacet
   facet normal 7.2157109401414332E-01 9.2451067241423948E-02 -7.4370782269478075E-03
      outer loop
         vertex 2.9994663863735465E+00 -5.6580881210038986E-02 3.1897117971529623E+00
         vertex 2.8879055424385700E+00 8.1240480815584903E-01 3.1681407173544582E+00
         vertex 2.9042170257779900E+00 7.5201294368353322E-01 3.9999999994898729E+00
      endloop
   endfacet
endsolid
